<svg width="104" height="104" viewBox="0 0 104 104" fill="none" xmlns="http://www.w3.org/2000/svg">
<path d="M52 23.4083C48.83 23.4083 46.2592 25.9792 46.2592 29.1117C46.2592 29.8656 46.4076 30.6121 46.6961 31.3086C46.9846 32.0051 47.4075 32.638 47.9406 33.171C48.4737 33.7041 49.1065 34.127 49.803 34.4155C50.4996 34.704 51.2461 34.8525 52 34.8525C55.1512 34.8525 57.722 32.2826 57.722 29.1117C57.722 25.9782 55.1512 23.4083 52 23.4083Z" fill="#EB8F90"/>
<path d="M75.3449 5.96024C75.3116 5.93944 75.2773 5.88224 75.2419 5.82504L74.8738 6.14536L75.2076 5.80944C74.3642 4.94832 73.1162 5.00552 71.5 5.94464C67.703 8.12448 60.0559 17.5157 55.8563 23.3376C56.2027 23.555 56.5375 23.8264 56.8433 24.1457C61.8207 17.2422 70.0763 6.75688 73.5842 6.41784C73.9981 6.36168 74.2061 6.50208 74.3371 6.63L74.3746 6.69136C74.5389 6.90664 74.5774 7.228 74.5108 7.58576C73.8671 11.3069 63.9215 19.4293 57.1792 24.4889C58.3318 25.7527 58.9712 27.4012 58.9722 29.1117C58.9715 30.582 58.51 32.015 57.6524 33.2093C86.527 31.8739 89.0739 24.415 89.1707 24.0802L89.258 23.7609L75.3449 5.96024ZM45.0289 29.1117C45.0289 27.5423 45.5687 26.104 46.4537 24.908C40.7743 20.6284 33.1968 14.2854 32.6872 11.311C32.6446 11.0282 32.6789 10.8118 32.7881 10.6215L32.8193 10.5674C32.9202 10.4874 33.0845 10.4062 33.3934 10.4187C36.1702 10.6881 42.5225 18.5474 46.8291 24.439C47.1006 24.1561 47.4011 23.8815 47.7319 23.6215C43.6488 18.0575 36.92 9.54824 33.5026 9.21337C32.8911 9.19049 32.3523 9.34232 31.9675 9.74688L32.2837 10.0807L31.9353 9.79888C31.902 9.81657 31.8698 9.87065 31.8375 9.88833L19.9618 25.0983L20.0564 25.3802C20.1303 25.6568 22.2893 31.9966 46.3258 33.1698C45.5094 32.059 45.0289 30.6498 45.0289 29.1117ZM79.6484 53.0962V88.4062L91.7488 83.8573V48.5482L79.6484 53.0962ZM36.3387 42.0025V55.7523L52 61.6398L67.6614 55.7523V42.0025L52 36.1161L36.3387 42.0025ZM24.3516 53.0962L12.2512 48.5482V83.8573L24.3516 88.4062V53.0962Z" fill="#EB8F90"/>
<path d="M36.3386 57.6035V92.9126L52 98.8L67.6614 92.9126V57.6035L52 63.491L36.3386 57.6035ZM87.2165 28.5667C84.3222 30.4606 79.1544 32.5458 69.9473 33.851L79.6484 37.4972V51.247L95.3098 45.3596V31.6098L87.2165 28.5667ZM48.9372 22.3371C49.8997 21.9022 50.9438 21.6771 52 21.6767C52.909 21.6767 53.7753 21.8473 54.5813 22.1447C55.6997 20.6053 56.8477 19.0877 58.0247 17.5926L52 15.3286L45.4584 17.7871C46.6461 19.2821 47.8059 20.799 48.9372 22.3371ZM19.3981 27.5829L8.69128 31.6098V45.3596L24.3516 51.246V37.4972L34.4448 33.7043C24.856 32.0913 20.9695 29.4154 19.3981 27.5829Z" fill="#EB8F90"/>
</svg>
