<?xml version="1.0" ?><svg id="Layer_1" style="enable-background:new 0 0 64 64;" version="1.0" viewBox="0 0 64 64" xml:space="preserve" xmlns="http://www.w3.org/2000/svg" xmlns:cc="http://creativecommons.org/ns#" xmlns:dc="http://purl.org/dc/elements/1.1/" xmlns:inkscape="http://www.inkscape.org/namespaces/inkscape" xmlns:rdf="http://www.w3.org/1999/02/22-rdf-syntax-ns#" xmlns:sodipodi="http://sodipodi.sourceforge.net/DTD/sodipodi-0.dtd" xmlns:svg="http://www.w3.org/2000/svg"><defs id="defs209"/><style id="style2" type="text/css">
	.st0{fill:#FFD15E;}
	.st1{fill:#FFE695;}
	.st2{fill:#FFBC34;}
	.st3{fill:#F2F0E7;}
	.st4{fill:#FFFFFF;}
	.st5{fill:#F2616E;}
	.st6{fill:#FFFDF3;}
	.st7{fill:#373449;}
	.st8{fill:#7ACBF5;}
	.st9{fill:#7EEBFF;}
	.st10{fill:#6DB4DB;}
	.st11{fill:#F2939B;}
	.st12{fill:#D65561;}
</style><g id="text4277" style="font-style:normal;font-weight:bold;font-size:3px;line-height:125%;font-family:Sans;-inkscape-font-specification:'Sans Bold';letter-spacing:0px;word-spacing:0px;fill:#92a3b3;fill-opacity:1;stroke:none" transform="translate(-0.194824,-5)"><g aria-label="BIRTHDAY CAKE" id="text4716" style="font-style:normal;font-variant:normal;font-weight:bold;font-stretch:normal;font-size:4.0007906px;line-height:1.25;font-family:'Segoe UI';-inkscape-font-specification:'Segoe UI Bold';letter-spacing:0px;word-spacing:0px;fill:#92a3b3;fill-opacity:1;stroke:none;stroke-width:0.99999994"><g id="g4987"><g id="g204" style="enable-background:new 0 0 64 64" transform="translate(0.194824,5)"><g id="g6"><path class="st0" d="M36.9,40.5v-5.9c0-0.9-0.7-1.6-1.6-1.6h-9.7c-0.9,0-1.6,0.7-1.6,1.6v5.9" id="path4"/></g><g id="g10"><path class="st1" d="M34.7,33.1c0.9,0,1.6,0.7,1.6,1.6v5.9h1.4v-5.9c0-0.9-0.7-1.6-1.6-1.6H34.7z" id="path8"/></g><g id="g14"><path class="st2" d="M26.2,33.1c-0.9,0-1.6,0.7-1.6,1.6v5.9h-1.4v-5.9c0-0.9,0.7-1.6,1.6-1.6H26.2z" id="path12"/></g><g id="g18"><path class="st3" d="M22.8,35.1c0.1,1.1,1,1.9,2.2,1.9c0.7,0,1.4-0.4,1.8-0.8c0.4,0.5,1.1,0.8,1.8,0.8c0.7,0,1.4-0.3,1.8-0.8    c0.4,0.5,1.1,0.8,1.8,0.8c0.7,0,1.4-0.4,1.8-0.8c0.4,0.5,1,0.8,1.8,0.8c1.2,0,2.2-0.9,2.2-2C39.2,31.1,22.4,30.6,22.8,35.1    L22.8,35.1z" id="path16"/></g><g id="g22"><path class="st4" d="M37.2,34.1c-0.2,0.9-1,1.5-1.9,1.5c-0.7,0-1-0.8-1.6-0.8c-0.6,0-0.9,0.8-1.6,0.8c-0.7,0-1-0.8-1.6-0.8    c-0.6,0-1,0.8-1.6,0.8c-0.7,0-1-0.8-1.6-0.8c-0.6,0-0.9,0.8-1.6,0.8c-0.9,0-1.6-0.6-1.9-1.4c-0.1,0.3-0.2,0.5-0.1,0.8    c0.1,1.1,0.9,1.9,2,1.9c0.7,0,1.2-0.4,1.6-0.8c0.4,0.5,1,0.8,1.6,0.8c0.7,0,1.2-0.3,1.6-0.8c0.4,0.5,1,0.8,1.6,0.8    c0.7,0,1.2-0.4,1.6-0.8c0.4,0.5,0.9,0.8,1.6,0.8c1.1,0,2-0.9,2-2C37.4,34.7,37.4,34.4,37.2,34.1L37.2,34.1z" id="path20"/></g><g id="g26"><path class="st5" d="M34.9,33v-4.7c0-0.9-0.7-1.6-1.6-1.6h-5.6c-0.9,0-1.6,0.7-1.6,1.6V33" id="path24"/></g><g id="g30"><path class="st6" d="M24.1,34.8c-0.1-0.1-0.1-0.1-0.1-0.1c-0.1-0.1-0.3-0.2-0.4-0.2c-0.6,0-0.4,0.9-1,0.9c-0.1,0.1,0,1.4,0,1.3    c0.7,0,0.4,0.4,0.8-0.1c0.1,0.2,0.5-0.3,0.7-0.2" id="path28"/></g><g id="g34"><path class="st6" d="M36.9,34.8c0.1-0.1,0.1-0.1,0.1-0.1c0.1-0.1,0.3-0.2,0.4-0.2c0.6,0,0.4,0.8,1,0.8c0.1,0.1,0,1.4,0,1.3    c-0.7,0-0.4,0.4-0.8-0.1c-0.1,0.2-0.5-0.3-0.7-0.2" id="path32"/></g><g id="g38"><path class="st7" d="M35.3,37.5c-0.6,0-1.1-0.2-1.6-0.6c-0.9,0.8-2.3,0.8-3.2,0c-0.9,0.8-2.3,0.8-3.3,0c-1.1,0.9-2.7,0.7-3.5-0.4    c-0.2-0.2-0.1-0.5,0.1-0.7c0.2-0.2,0.5-0.1,0.7,0.1c0.2,0.3,0.6,0.6,1.2,0.6c0.4,0,0.9-0.2,1.2-0.6c0.2-0.2,0.6-0.2,0.8,0    c0.6,0.8,1.9,0.8,2.5,0c0.2-0.3,0.6-0.3,0.8,0c0.6,0.8,1.8,0.8,2.4,0c0.1-0.1,0.2-0.2,0.4-0.2l0,0c0.2,0,0.3,0.1,0.4,0.2    c0.6,0.8,1.8,0.8,2.4,0.1c0.2-0.2,0.5-0.2,0.7-0.1c0.2,0.2,0.2,0.5,0.1,0.7C36.8,37.2,36.1,37.5,35.3,37.5z" id="path36"/></g><g id="g42"><path class="st8" d="M22.1,40.2h16.9c0.6,0,1.2,0.5,1.2,1.2v5.2c0,0.6-0.5,1.2-1.2,1.2H22.1c-0.7,0-1.2-0.5-1.2-1.2v-5.2    C20.9,40.7,21.4,40.2,22.1,40.2L22.1,40.2z" id="path40"/></g><g id="g46"><path class="st9" d="M40.1,47.6V42c0-1-0.7-1.9-1.6-1.9h-1.4c0.9,0,1.6,0.8,1.6,1.9v5.6" id="path44"/></g><g id="g50"><path class="st10" d="M20.9,46.9V42c0-1,0.7-1.9,1.6-1.9h1.3c-0.9,0-1.6,0.8-1.6,1.9v4.8" id="path48"/></g><g id="g54"><path class="st3" d="M17.9,42.2c0,1,1.1,1.9,2.4,1.9c0.8,0,3.8-0.3,4.2-0.7c0.5,0.5,1.2,0.7,2,0.7c0.8,0,1.5-0.3,2-0.7    c0.5,0.5,1.2,0.7,2,0.7s1.5-0.3,2-0.7c0.5,0.5,1.2,0.7,2,0.7c0.8,0,1.5-0.3,2-0.8c0.5,0.5,1.2,0.3,2,0.3c1.3,0,2.4-0.8,2.4-1.9    c-0.1-3-2.8-1.8-10.5-1.8C23.3,40,18,39.2,17.9,42.2L17.9,42.2z" id="path52"/></g><g id="g58"><path class="st6" d="M22.6,42.3c-0.1-0.1-0.1-0.1-0.1-0.1c-0.1-0.1-0.3-0.2-0.4-0.2c-0.6,0-1,0.8-1.6,0.8c-0.1,0.1,0,1.4,0,1.3    c0.7,0,1.2-0.3,1.6-0.8c0.1,0.2,0.3,0.3,0.5,0.4" id="path56"/></g><g id="g62"><path class="st4" d="M22.1,41.5c0,0.2-0.1,0.3-0.1,0.6c0,1.1,0.9,2,2,2c0.7,0,1.2-0.3,1.6-0.8c0.4,0.5,0.9,0.8,1.6,0.8    s1.2-0.3,1.6-0.8c0.4,0.5,0.9,0.8,1.6,0.8s1.2-0.3,1.6-0.8c0.4,0.5,1,0.8,1.6,0.8c0.7,0,1.2-0.3,1.6-0.8c0.4,0.5,1,0.8,1.6,0.8    c1.1,0,2-1,2-2.1c0-0.3-0.7,0.6-0.7,0.2c-0.7,0.6-0.9,0.5-1.3,0.5c-0.7,0-1-0.8-1.6-0.8c-0.6,0-0.9,0.8-1.6,0.8    c-0.7,0-1-0.8-1.6-0.8c-0.6,0-0.9,0.8-1.6,0.8s-1-0.8-1.6-0.8c-0.6,0-1,0.8-1.6,0.8s-1-0.8-1.6-0.8c-0.6,0-1,0.8-1.6,0.8    C23.2,42.8,22.4,42.3,22.1,41.5L22.1,41.5z" id="path60"/></g><g id="g66"><path class="st6" d="M38.2,42.3c0.1-0.1,0.1-0.1,0.1-0.1c0.1-0.1,0.3-0.2,0.4-0.2c0.6,0,0.9,0.8,1.6,0.8c0.1,0.1,0,1.4,0,1.3    c-0.7,0-1.2-0.3-1.6-0.8c-0.1,0.2-0.3,0.3-0.5,0.4" id="path64"/></g><g id="g70"><path class="st7" d="M40.5,47.8h-20c-0.3,0-0.5-0.2-0.5-0.5v-5.2c0-1.4,0.9-2.4,2.1-2.4h16.8c1.3,0,2.1,0.9,2.1,2.5v5.1    C41,47.5,40.8,47.8,40.5,47.8z M21,46.8h19v-4.6c0-1.5-0.8-1.5-1.1-1.5H22.1c-1,0-1.1,1.2-1.1,1.4V46.8z" id="path68"/></g><g id="g74"><path class="st7" d="M36.9,44.6c-0.6,0-1.2-0.2-1.6-0.6c-0.9,0.8-2.3,0.7-3.2,0c-0.9,0.7-2.3,0.7-3.2,0c-0.9,0.7-2.3,0.7-3.2,0    c-0.4,0.4-1,0.6-1.6,0.6c-0.7,0-1.5-0.4-1.9-0.9l0.8-0.6c0.6,0.8,1.8,0.7,2.4,0c0.2-0.2,0.6-0.2,0.8,0c0.6,0.8,1.8,0.7,2.4,0    c0.2-0.2,0.6-0.2,0.8,0c0.6,0.8,1.9,0.7,2.4,0c0.1-0.1,0.2-0.2,0.4-0.2c0.2,0,0.3,0.1,0.4,0.2c0.6,0.7,1.9,0.7,2.4,0    c0.1-0.1,0.2-0.2,0.4-0.2c0.1,0,0.3,0.1,0.4,0.2c0.6,0.8,1.8,0.8,2.4,0l0.8,0.6C38.4,44.3,37.7,44.6,36.9,44.6z" id="path72"/></g><g id="g78"><path class="st7" d="M20.9,44.6c-0.2,0-0.3,0-0.4,0c-0.3-0.1-0.5-0.3-0.4-0.6c0.1-0.3,0.3-0.5,0.5-0.4c0,0,0.1,0,0.1,0    c0.1,0,0.1,0,0.2,0c0.5,0,0.9-0.2,1.2-0.6c0.2-0.2,0.5-0.3,0.7-0.1c0.2,0.2,0.3,0.5,0.1,0.7C22.4,44.2,21.7,44.6,20.9,44.6z" id="path76"/></g><g id="g82"><path class="st7" d="M40.1,44.6c-0.8,0-1.5-0.4-2-1c-0.2-0.2-0.1-0.5,0.1-0.7c0.2-0.2,0.5-0.1,0.7,0.1c0.3,0.4,0.7,0.6,1.2,0.6    c0.1,0,0.1,0,0.2,0l0.2,0.5l0,0.5C40.4,44.6,40.3,44.6,40.1,44.6z" id="path80"/></g><g id="g86"><path class="st7" d="M38.1,37.4C38,37.4,38,37.4,38.1,37.4c-0.8-0.1-1.2-0.6-1.5-0.9c-0.2-0.2-0.1-0.5,0.1-0.7    c0.2-0.2,0.5-0.1,0.7,0.1c0.3,0.3,0.5,0.5,0.8,0.5c0.3,0,0.5,0.3,0.4,0.6C38.5,37.2,38.3,37.4,38.1,37.4z" id="path84"/></g><g id="g90"><rect class="st8" height="5.1" id="rect88" width="2.4" x="29.3" y="21.5"/></g><g id="g94"><rect class="st7" height="2.2" id="rect92" width="1" x="30" y="20.2"/></g><g id="g98"><polygon class="st10" id="polygon96" points="29.2,21.5 29.2,26.6 29.9,26.6 29.9,21.5 29.2,21.5   "/></g><g id="g102"><polygon class="st9" id="polygon100" points="31,21.5 31,26.6 31.7,26.6 31.7,21.5 31,21.5   "/></g><g id="g108"><path class="st10" d="M29.9,23.7L29.9,23.7c0-0.3,0.3-0.6,0.5-0.6c0.3,0,0.5,0.3,0.5,0.6l0,0" id="path104"/><path class="st10" d="M31,24.2c-0.3,0-0.5-0.2-0.5-0.5c0,0,0-0.1-0.1-0.1c0,0,0,0.1,0,0.1c0,0.3-0.2,0.5-0.5,0.5s-0.5-0.2-0.5-0.5    c0-0.6,0.5-1.1,1-1.1s1,0.5,1,1.1C31.5,23.9,31.3,24.2,31,24.2z" id="path106"/></g><g id="g114"><path class="st10" d="M29.9,23v0.7c0,0.3-0.2,0.5-0.5,0.5c-0.3,0-0.5-0.3-0.5-0.6v-1.6H32v0.6v1.2c0,0.3-0.2,0.6-0.5,0.6    c-0.3,0-0.5-0.3-0.5-0.6l0,0" id="path110"/><path class="st10" d="M31.5,24.7c-0.6,0-1-0.5-1-1.1c0-0.3,0.2-0.5,0.5-0.5s0.5,0.2,0.5,0.5l0-1.2h-2.1v1.1c0,0.1,0,0.1,0,0.1    l0-0.7c0-0.3,0.2-0.5,0.5-0.5s0.5,0.2,0.5,0.5v0.7c0,0.6-0.4,1-1,1c-0.6,0-1-0.5-1-1.1v-1.6c0-0.3,0.2-0.5,0.5-0.5H32    c0.3,0,0.5,0.2,0.5,0.5v1.7C32.5,24.3,32.1,24.7,31.5,24.7z" id="path112"/></g><g id="g118"><path class="st0" d="M31.5,19.2c0-0.6-1.1-1.7-1.1-1.7c0,0-1.1,1.1-1.1,1.7c0,0.6,0.5,1.1,1.1,1.1C31,20.3,31.5,19.8,31.5,19.2    L31.5,19.2z" id="path116"/></g><g id="g122"><path class="st1" d="M30.3,17.5c0,0-0.1-0.4-0.1-0.3c0.3,0.3,0.7,1.5,0.7,2c0,0.6-0.2,1.1-0.7,1.1c0.1,0,0.1,0,0.2,0    c0.6,0,1.1-0.5,1.1-1.1S30.3,17.5,30.3,17.5L30.3,17.5z" id="path120"/></g><g id="g126"><path class="st2" d="M30.5,17.5C30.5,17.5,30.5,17.5,30.5,17.5c-0.3,0.3-0.6,1.2-0.6,1.7c0,0.6,0.2,1.1,0.8,1.1    c-0.1,0-0.1,0-0.2,0c-0.6,0-1.1-0.5-1.1-1.1S30.5,17.5,30.5,17.5L30.5,17.5z" id="path124"/></g><g id="g130"><path class="st7" d="M30.4,20.8c-0.4,0-0.8-0.2-1.2-0.5c-0.4-0.3-0.6-0.8-0.6-1.3c0-0.8,1.1-1.9,1.4-2.3c0.1-0.1,0.4-0.2,0.5-0.1    c0.2,0.1,1.6,1.4,1.6,2.3c0,0.5-0.2,0.9-0.5,1.3C31.3,20.6,30.9,20.8,30.4,20.8z M30.4,17.8c-0.4,0.5-0.8,1-0.8,1.2    c0,0.2,0.1,0.4,0.2,0.6c0.1,0.1,0.3,0.2,0.5,0.2c0.2,0,0.4-0.1,0.6-0.2c0.1-0.1,0.2-0.3,0.2-0.5c0,0,0,0,0,0    C31.2,18.8,30.7,18.2,30.4,17.8z" id="path128"/></g><g id="g134"><path class="st7" d="M32,27.1h-3.1c-0.3,0-0.5-0.2-0.5-0.5v-4.7c0-0.3,0.2-0.5,0.5-0.5H32c0.3,0,0.5,0.2,0.5,0.5v4.7    C32.5,26.9,32.3,27.1,32,27.1z M29.4,26.1h2.1v-3.7h-2.1V26.1z" id="path132"/></g><g id="g138"><path class="st11" d="M32.6,26.7c0.9,0,1.6,0.7,1.6,1.6V33h1.1v-4.7c0-0.9-0.7-1.6-1.6-1.6H32.6z" id="path136"/></g><g id="g142"><path class="st12" d="M28.4,26.7c-0.9,0-1.6,0.7-1.6,1.6V33h-1.1v-4.7c0-0.9,0.7-1.6,1.6-1.6H28.4z" id="path140"/></g><g id="g146"><path class="st3" d="M25.2,28.8c0,1.1-0.9,2,0.3,2c0.7,0,0.9-0.3,1.2-0.9c0.4,0.5,1,0.9,1.7,0.9c0.7,0,1.3-0.3,1.7-0.9    c0.4,0.5,1,0.9,1.7,0.9c0.7,0,1.3-0.3,1.7-0.9c0.4,0.5,0.5,0.9,1.2,0.9c1.2,0,0.9-0.9,0.9-2C35.7,25.4,25.2,25.5,25.2,28.8    L25.2,28.8z" id="path144"/></g><g id="g150"><path class="st4" d="M25.7,30.7c0.7,0,1.2-0.4,1.6-0.8c0.4,0.5,1,0.8,1.6,0.8c0.7,0,1.2-0.3,1.6-0.8c0.4,0.5,1,0.8,1.6,0.8    c0.7,0,1.2-0.4,1.6-0.8c0.4,0.5,0.9,0.8,1.6,0.8c0,0,0-1.4,0-1.4c-0.7,0-1-0.8-1.6-0.8c-0.6,0-0.9,0.8-1.6,0.8    c-0.7,0-1-0.8-1.6-0.8c-0.6,0-1,0.8-1.6,0.8c-0.7,0-1-0.8-1.6-0.8c-0.6,0-0.9,0.8-1.6,0.8" id="path148"/></g><g id="g154"><path class="st7" d="M36.1,33h-1v-4.7c0-0.6-0.5-1.1-1.2-1.1H27c-0.7,0-1.2,0.5-1.2,1.1V33h-1v-4.7c0-1.2,1-2.1,2.2-2.1h6.9    c1.3,0,2.2,0.9,2.2,2.1V33z" id="path152"/></g><g id="g158"><path class="st7" d="M35.2,31.1c-0.6,0-1.1-0.2-1.5-0.6c-0.9,0.8-2.3,0.8-3.2,0c-0.9,0.8-2.3,0.8-3.3,0c-0.4,0.4-1,0.6-1.5,0.6    c-0.3,0-0.5-0.2-0.5-0.5s0.2-0.5,0.5-0.5c0.4,0,0.8-0.2,1.1-0.6c0.2-0.2,0.6-0.2,0.8,0c0.6,0.8,1.9,0.8,2.5,0    c0.2-0.3,0.6-0.3,0.8,0c0.6,0.8,1.8,0.8,2.4,0c0.1-0.1,0.2-0.2,0.4-0.2l0,0c0.2,0,0.3,0.1,0.4,0.2c0.4,0.5,0.7,0.6,1.1,0.6    c0.3,0,0.5,0.2,0.5,0.5S35.5,31.1,35.2,31.1z" id="path156"/></g><g id="g162"><path class="st7" d="M38.6,40.5h-1v-5.9c0-0.6-0.6-1.1-1.4-1.1H24.8c-0.8,0-1.4,0.5-1.4,1.1v5.9h-1v-5.9c0-1.2,1.1-2.1,2.4-2.1    h11.5c1.3,0,2.4,0.9,2.4,2.1V40.5z" id="path160"/></g><g id="g166"><path class="st7" d="M19.3,18.5c-0.3,0-0.5-0.2-0.5-0.5v-1.6c0-0.3,0.2-0.5,0.5-0.5s0.5,0.2,0.5,0.5V18    C19.8,18.2,19.5,18.5,19.3,18.5z" id="path164"/></g><g id="g170"><path class="st7" d="M20.1,17.6h-1.6c-0.3,0-0.5-0.2-0.5-0.5s0.2-0.5,0.5-0.5h1.6c0.3,0,0.5,0.2,0.5,0.5S20.3,17.6,20.1,17.6z" id="path168"/></g><g id="g174"><path class="st7" d="M20.1,31.9c-0.7,0-1.3-0.6-1.3-1.3c0-0.7,0.6-1.3,1.3-1.3c0.7,0,1.3,0.6,1.3,1.3    C21.4,31.3,20.8,31.9,20.1,31.9z M20.1,30.3c-0.1,0-0.3,0.1-0.3,0.3c0,0.2,0.2,0.3,0.3,0.3c0.2,0,0.3-0.1,0.3-0.3    C20.4,30.5,20.3,30.3,20.1,30.3z" id="path172"/></g><g id="g178"><path class="st7" d="M12.1,25.2c-0.7,0-1.3-0.6-1.3-1.3c0-0.7,0.6-1.3,1.3-1.3c0.7,0,1.3,0.6,1.3,1.3    C13.4,24.6,12.8,25.2,12.1,25.2z M12.1,23.6c-0.2,0-0.3,0.1-0.3,0.3c0,0.2,0.1,0.3,0.3,0.3c0.2,0,0.3-0.1,0.3-0.3    C12.4,23.7,12.2,23.6,12.1,23.6z" id="path176"/></g><g id="g182"><path class="st7" d="M40.9,31.9c-0.3,0-0.5-0.2-0.5-0.5v-1.6c0-0.3,0.2-0.5,0.5-0.5s0.5,0.2,0.5,0.5v1.6    C41.4,31.7,41.1,31.9,40.9,31.9z" id="path180"/></g><g id="g186"><path class="st7" d="M41.7,31.1h-1.6c-0.3,0-0.5-0.2-0.5-0.5s0.2-0.5,0.5-0.5h1.6c0.3,0,0.5,0.2,0.5,0.5S41.9,31.1,41.7,31.1z" id="path184"/></g><g id="g190"><path class="st7" d="M40.1,18.5c-0.7,0-1.3-0.6-1.3-1.3c0-0.7,0.6-1.3,1.3-1.3c0.7,0,1.3,0.6,1.3,1.3    C41.4,17.9,40.8,18.5,40.1,18.5z M40.1,16.9c-0.2,0-0.3,0.2-0.3,0.3c0,0.2,0.1,0.3,0.3,0.3c0.2,0,0.3-0.1,0.3-0.3    C40.4,17,40.2,16.9,40.1,16.9z" id="path188"/></g><g id="g194"><path class="st7" d="M48.1,25.2c-0.7,0-1.3-0.6-1.3-1.3c0-0.7,0.6-1.3,1.3-1.3c0.7,0,1.3,0.6,1.3,1.3    C49.4,24.6,48.8,25.2,48.1,25.2z M48.1,23.6c-0.2,0-0.3,0.1-0.3,0.3c0,0.2,0.1,0.3,0.3,0.3c0.2,0,0.3-0.1,0.3-0.3    C48.4,23.7,48.2,23.6,48.1,23.6z" id="path192"/></g><g id="g198"><path class="st7" d="M56.8,47.8H46.5c-0.3,0-0.5-0.2-0.5-0.5s0.2-0.5,0.5-0.5h10.3c0.3,0,0.5,0.2,0.5,0.5S57.1,47.8,56.8,47.8z     M45.1,47.8h-1c-0.3,0-0.5-0.2-0.5-0.5s0.2-0.5,0.5-0.5h1c0.3,0,0.5,0.2,0.5,0.5S45.4,47.8,45.1,47.8z M42.5,47.8H16.7    c-0.3,0-0.5-0.2-0.5-0.5s0.2-0.5,0.5-0.5h25.7c0.3,0,0.5,0.2,0.5,0.5S42.8,47.8,42.5,47.8z M15.3,47.8h-1.8    c-0.3,0-0.5-0.2-0.5-0.5s0.2-0.5,0.5-0.5h1.8c0.3,0,0.5,0.2,0.5,0.5S15.6,47.8,15.3,47.8z M12.1,47.8H7.2c-0.3,0-0.5-0.2-0.5-0.5    s0.2-0.5,0.5-0.5h4.9c0.3,0,0.5,0.2,0.5,0.5S12.4,47.8,12.1,47.8z" id="path196"/></g><g id="g202"><path class="st7" d="M22.9,37.4c-0.2,0-0.5-0.2-0.5-0.4c0-0.3,0.1-0.5,0.4-0.6c0.3-0.1,0.5-0.2,0.8-0.6c0.2-0.2,0.5-0.3,0.7-0.1    c0.2,0.2,0.3,0.5,0.1,0.7C24.1,36.9,23.7,37.3,22.9,37.4C23,37.4,22.9,37.4,22.9,37.4z" id="path200"/></g></g><path d="m 17.047301,61.00827 v -2.801335 h 1.019732 q 0.468843,0 0.720846,0.171909 0.252003,0.171909 0.252003,0.484471 0,0.226607 -0.154327,0.396563 -0.152374,0.169955 -0.390703,0.236375 v 0.0078 q 0.298888,0.03712 0.476657,0.220747 0.179723,0.18363 0.179723,0.447354 0,0.384841 -0.275445,0.611448 -0.275445,0.224654 -0.752102,0.224654 z m 0.630984,-2.336399 v 0.664194 h 0.277398 q 0.195351,0 0.306702,-0.09377 0.113303,-0.09572 0.113303,-0.26177 0,-0.308655 -0.461028,-0.308655 z m 0,1.133036 v 0.738428 h 0.341864 q 0.218793,0 0.341865,-0.101583 0.125024,-0.101583 0.125024,-0.277399 0,-0.168001 -0.123071,-0.263723 -0.121118,-0.09572 -0.339911,-0.09572 z" id="path4748" style="font-style:normal;font-variant:normal;font-weight:bold;font-stretch:normal;font-size:4.0007906px;font-family:'Segoe UI';-inkscape-font-specification:'Segoe UI Bold';fill:#92a3b3;fill-opacity:1;stroke-width:0.99999994"/><path d="m 20.241291,61.00827 h -0.630984 v -2.801335 h 0.630984 z" id="path4750" style="font-style:normal;font-variant:normal;font-weight:bold;font-stretch:normal;font-size:4.0007906px;font-family:'Segoe UI';-inkscape-font-specification:'Segoe UI Bold';fill:#92a3b3;fill-opacity:1;stroke-width:0.99999994"/><path d="M 23.226256,61.00827 H 22.501503 L 22.06587,60.287425 q -0.04884,-0.08205 -0.09377,-0.146514 -0.04493,-0.06447 -0.09182,-0.109396 -0.04493,-0.04688 -0.09572,-0.07033 -0.04884,-0.0254 -0.107443,-0.0254 h -0.169956 v 1.072477 h -0.630984 v -2.801335 h 1.000198 q 1.019733,0 1.019733,0.76187 0,0.146513 -0.04493,0.271538 -0.04493,0.123071 -0.126978,0.2227 -0.08205,0.09963 -0.199258,0.171909 -0.115258,0.07228 -0.257864,0.113304 v 0.0078 q 0.06251,0.01953 0.121118,0.06447 0.05861,0.04298 0.113303,0.101582 0.0547,0.05861 0.103536,0.126978 0.05079,0.06642 0.09181,0.130886 z m -1.71909,-2.328585 v 0.779451 h 0.273492 q 0.203165,0 0.326236,-0.117211 0.125025,-0.119164 0.125025,-0.29498 0,-0.36726 -0.43954,-0.36726 z" id="path4752" style="font-style:normal;font-variant:normal;font-weight:bold;font-stretch:normal;font-size:4.0007906px;font-family:'Segoe UI';-inkscape-font-specification:'Segoe UI Bold';fill:#92a3b3;fill-opacity:1;stroke-width:0.99999994"/><path d="m 25.375118,58.720709 h -0.798986 v 2.287561 h -0.632937 v -2.287561 h -0.795079 v -0.513774 h 2.227002 z" id="path4754" style="font-style:normal;font-variant:normal;font-weight:bold;font-stretch:normal;font-size:4.0007906px;font-family:'Segoe UI';-inkscape-font-specification:'Segoe UI Bold';fill:#92a3b3;fill-opacity:1;stroke-width:0.99999994"/><path d="M 28.176453,61.00827 H 27.543516 V 59.86742 H 26.38313 v 1.14085 h -0.630984 v -2.801335 h 0.630984 v 1.117409 h 1.160386 v -1.117409 h 0.632937 z" id="path4756" style="font-style:normal;font-variant:normal;font-weight:bold;font-stretch:normal;font-size:4.0007906px;font-family:'Segoe UI';-inkscape-font-specification:'Segoe UI Bold';fill:#92a3b3;fill-opacity:1;stroke-width:0.99999994"/><path d="m 28.815251,61.00827 v -2.801335 h 0.992383 q 1.492483,0 1.492483,1.365505 0,0.654426 -0.408284,1.045128 -0.40633,0.390702 -1.084199,0.390702 z m 0.630984,-2.287561 v 1.775741 h 0.312562 q 0.410237,0 0.642705,-0.246142 0.234421,-0.246142 0.234421,-0.670054 0,-0.40047 -0.232468,-0.629031 -0.230514,-0.230514 -0.648565,-0.230514 z" id="path4758" style="font-style:normal;font-variant:normal;font-weight:bold;font-stretch:normal;font-size:4.0007906px;font-family:'Segoe UI';-inkscape-font-specification:'Segoe UI Bold';fill:#92a3b3;fill-opacity:1;stroke-width:0.99999994"/><path d="M 34.169824,61.00827 H 33.482189 L 33.28293,60.3851 h -0.99629 l -0.197305,0.62317 h -0.683729 l 1.019733,-2.801335 h 0.748195 z M 33.138371,59.90063 32.83753,58.959037 q -0.03321,-0.105489 -0.04688,-0.252003 h -0.01563 q -0.0098,0.123071 -0.04884,0.244189 l -0.304748,0.949407 z" id="path4760" style="font-style:normal;font-variant:normal;font-weight:bold;font-stretch:normal;font-size:4.0007906px;font-family:'Segoe UI';-inkscape-font-specification:'Segoe UI Bold';fill:#92a3b3;fill-opacity:1;stroke-width:0.99999994"/><path d="m 36.334314,58.206935 -0.912289,1.805045 v 0.99629 h -0.630984 v -0.984569 l -0.888848,-1.816766 h 0.720846 l 0.451261,1.045129 q 0.01172,0.0293 0.06447,0.228561 h 0.0078 q 0.0254,-0.140653 0.06056,-0.220747 l 0.459076,-1.052943 z" id="path4762" style="font-style:normal;font-variant:normal;font-weight:bold;font-stretch:normal;font-size:4.0007906px;font-family:'Segoe UI';-inkscape-font-specification:'Segoe UI Bold';fill:#92a3b3;fill-opacity:1;stroke-width:0.99999994"/><path d="m 39.762726,60.908641 q -0.306701,0.148467 -0.800939,0.148467 -0.644659,0 -1.013872,-0.378981 -0.369214,-0.378981 -0.369214,-1.009965 0,-0.672008 0.414144,-1.090059 0.416098,-0.418052 1.078338,-0.418052 0.410238,0 0.691543,0.103536 v 0.607542 q -0.281305,-0.168002 -0.640751,-0.168002 -0.39461,0 -0.636845,0.248096 -0.242235,0.248096 -0.242235,0.672008 0,0.40633 0.228561,0.648566 0.22856,0.240281 0.615355,0.240281 0.369214,0 0.675915,-0.179723 z" id="path4764" style="font-style:normal;font-variant:normal;font-weight:bold;font-stretch:normal;font-size:4.0007906px;font-family:'Segoe UI';-inkscape-font-specification:'Segoe UI Bold';fill:#92a3b3;fill-opacity:1;stroke-width:0.99999994"/><path d="M 42.718388,61.00827 H 42.030753 L 41.831494,60.3851 h -0.99629 l -0.197305,0.62317 H 39.95417 l 1.019733,-2.801335 h 0.748195 z m -1.031453,-1.10764 -0.300841,-0.941593 q -0.03321,-0.105489 -0.04688,-0.252003 h -0.01563 q -0.0098,0.123071 -0.04884,0.244189 l -0.304748,0.949407 z" id="path4766" style="font-style:normal;font-variant:normal;font-weight:bold;font-stretch:normal;font-size:4.0007906px;font-family:'Segoe UI';-inkscape-font-specification:'Segoe UI Bold';fill:#92a3b3;fill-opacity:1;stroke-width:0.99999994"/><path d="m 45.396653,61.00827 h -0.797032 l -0.816568,-1.217037 q -0.02344,-0.03516 -0.07423,-0.154327 h -0.0098 v 1.371364 h -0.630984 v -2.801335 h 0.630984 v 1.324481 h 0.0098 q 0.02344,-0.0547 0.07814,-0.156281 l 0.77359,-1.1682 h 0.752102 l -0.976755,1.336202 z" id="path4768" style="font-style:normal;font-variant:normal;font-weight:bold;font-stretch:normal;font-size:4.0007906px;font-family:'Segoe UI';-inkscape-font-specification:'Segoe UI Bold';fill:#92a3b3;fill-opacity:1;stroke-width:0.99999994"/><path d="m 47.342349,61.00827 h -1.68002 v -2.801335 h 1.615554 v 0.513774 h -0.98457 v 0.62317 h 0.916197 v 0.51182 h -0.916197 v 0.640751 h 1.049036 z" id="path4770" style="font-style:normal;font-variant:normal;font-weight:bold;font-stretch:normal;font-size:4.0007906px;font-family:'Segoe UI';-inkscape-font-specification:'Segoe UI Bold';fill:#92a3b3;fill-opacity:1;stroke-width:0.99999994"/></g></g></g></svg>